<svg width="30" height="30" viewBox="0 0 30 30" fill="none" xmlns="http://www.w3.org/2000/svg">
<path d="M29.1667 20.6938C29.1667 26.0021 26.0021 29.1667 20.6938 29.1667H18.9583C18.1562 29.1667 17.5 28.5104 17.5 27.7083V19.2937C17.5 18.9 17.8208 18.5646 18.2146 18.5646L20.7812 18.5208C20.9854 18.5062 21.1604 18.3604 21.2042 18.1562L21.7146 15.3708C21.7245 15.3077 21.7206 15.2432 21.7032 15.1817C21.6857 15.1202 21.6551 15.0632 21.6136 15.0147C21.572 14.9662 21.5203 14.9273 21.4623 14.9006C21.4042 14.874 21.341 14.8603 21.2771 14.8604L18.1708 14.9042C17.7625 14.9042 17.4417 14.5833 17.4271 14.1896L17.3687 10.6167C17.3687 10.3833 17.5583 10.1792 17.8062 10.1792L21.3062 10.1208C21.5542 10.1208 21.7437 9.93125 21.7437 9.68333L21.6854 6.18333C21.6854 5.93542 21.4958 5.74583 21.2479 5.74583L17.3104 5.80417C16.7356 5.8129 16.1682 5.93497 15.6407 6.16339C15.1132 6.3918 14.6359 6.72208 14.2363 7.13527C13.8366 7.54847 13.5224 8.03648 13.3117 8.57132C13.101 9.10616 12.9979 9.67733 13.0083 10.2521L13.0812 14.2625C13.0958 14.6708 12.775 14.9917 12.3667 15.0062L10.6167 15.0354C10.3687 15.0354 10.1792 15.225 10.1792 15.4729L10.2229 18.2437C10.2229 18.4917 10.4125 18.6812 10.6604 18.6812L12.4104 18.6521C12.8187 18.6521 13.1396 18.9729 13.1542 19.3667L13.2854 27.6792C13.3 28.4958 12.6437 29.1667 11.8271 29.1667H8.47292C3.16458 29.1667 0 26.0021 0 20.6792V8.47292C0 3.16458 3.16458 0 8.47292 0H20.6938C26.0021 0 29.1667 3.16458 29.1667 8.47292V20.6938Z" fill="white"/>
</svg>
